<svg xmlns="http://www.w3.org/2000/svg" xmlns:xlink="http://www.w3.org/1999/xlink" width="500" zoomAndPan="magnify" viewBox="0 0 375 374.999991" height="500" preserveAspectRatio="xMidYMid meet" version="1.0"><defs><clipPath id="58f07db405"><path d="M 140.222656 207.445312 L 160.023438 207.445312 L 160.023438 227.246094 L 140.222656 227.246094 Z M 140.222656 207.445312 " clip-rule="nonzero"/></clipPath><clipPath id="f5ae6a16a6"><path d="M 159.964844 149.078125 L 183.167969 149.078125 L 183.167969 226.5 L 159.964844 226.5 Z M 159.964844 149.078125 " clip-rule="nonzero"/></clipPath><clipPath id="0aa38466e9"><path d="M 171.832031 149.078125 L 159.964844 149.078125 L 171.214844 226.554688 L 183.082031 226.554688 L 171.832031 149.078125 " clip-rule="nonzero"/></clipPath><clipPath id="92e6cb606c"><path d="M 195.175781 149.078125 L 207.269531 149.078125 L 207.269531 227.1875 L 195.175781 227.1875 Z M 195.175781 149.078125 " clip-rule="nonzero"/></clipPath><clipPath id="eb057e68d8"><path d="M 219.367188 149 L 231.601562 149 L 231.601562 173.578125 L 219.367188 173.578125 Z M 219.367188 149 " clip-rule="nonzero"/></clipPath><clipPath id="3fefe0b68d"><path d="M 230.863281 165.40625 C 231.308594 164.148438 231.601562 162.722656 231.601562 161.320312 C 231.601562 159.917969 231.351562 158.570312 230.90625 157.328125 C 230.890625 157.300781 230.890625 157.273438 230.878906 157.246094 C 229.101562 152.578125 224.417969 149.140625 219.367188 149.074219 L 219.367188 173.578125 C 224.445312 173.515625 229.132812 170.128906 230.863281 165.40625 " clip-rule="nonzero"/></clipPath><clipPath id="5017695ac3"><path d="M 219.503906 181.492188 L 229.589844 181.492188 L 229.589844 227.300781 L 219.503906 227.300781 Z M 219.503906 181.492188 " clip-rule="nonzero"/></clipPath></defs><g clip-path="url(#58f07db405)"><path fill="#ffffff" d="M 160.023438 217.347656 C 160.023438 217.671875 160.007812 217.992188 159.976562 218.316406 C 159.945312 218.640625 159.894531 218.960938 159.832031 219.277344 C 159.769531 219.59375 159.691406 219.910156 159.597656 220.21875 C 159.503906 220.53125 159.394531 220.835938 159.269531 221.132812 C 159.144531 221.433594 159.007812 221.726562 158.855469 222.015625 C 158.703125 222.300781 158.535156 222.578125 158.355469 222.847656 C 158.175781 223.117188 157.980469 223.375 157.777344 223.625 C 157.570312 223.878906 157.351562 224.117188 157.125 224.347656 C 156.894531 224.578125 156.65625 224.792969 156.402344 225 C 156.152344 225.203125 155.890625 225.398438 155.625 225.578125 C 155.351562 225.757812 155.074219 225.925781 154.789062 226.078125 C 154.503906 226.230469 154.210938 226.367188 153.910156 226.492188 C 153.613281 226.617188 153.308594 226.726562 152.996094 226.820312 C 152.6875 226.914062 152.371094 226.992188 152.054688 227.054688 C 151.734375 227.121094 151.414062 227.167969 151.09375 227.199219 C 150.769531 227.230469 150.445312 227.246094 150.125 227.246094 C 149.796875 227.246094 149.476562 227.230469 149.152344 227.199219 C 148.828125 227.167969 148.507812 227.121094 148.191406 227.054688 C 147.875 226.992188 147.558594 226.914062 147.25 226.820312 C 146.9375 226.726562 146.632812 226.617188 146.335938 226.492188 C 146.035156 226.367188 145.742188 226.230469 145.457031 226.078125 C 145.171875 225.925781 144.890625 225.757812 144.625 225.578125 C 144.351562 225.398438 144.09375 225.203125 143.84375 225 C 143.59375 224.792969 143.351562 224.578125 143.121094 224.347656 C 142.894531 224.117188 142.675781 223.878906 142.46875 223.625 C 142.265625 223.375 142.070312 223.117188 141.890625 222.847656 C 141.710938 222.578125 141.546875 222.300781 141.390625 222.015625 C 141.238281 221.726562 141.101562 221.433594 140.976562 221.132812 C 140.851562 220.835938 140.742188 220.53125 140.648438 220.21875 C 140.554688 219.910156 140.476562 219.59375 140.414062 219.277344 C 140.351562 218.960938 140.304688 218.640625 140.269531 218.316406 C 140.238281 217.992188 140.222656 217.671875 140.222656 217.347656 C 140.222656 217.023438 140.238281 216.699219 140.269531 216.375 C 140.304688 216.054688 140.351562 215.734375 140.414062 215.414062 C 140.476562 215.097656 140.554688 214.78125 140.648438 214.472656 C 140.742188 214.164062 140.851562 213.859375 140.976562 213.558594 C 141.101562 213.257812 141.238281 212.964844 141.390625 212.679688 C 141.546875 212.394531 141.710938 212.117188 141.890625 211.847656 C 142.070312 211.578125 142.265625 211.316406 142.46875 211.066406 C 142.675781 210.816406 142.894531 210.574219 143.121094 210.347656 C 143.351562 210.117188 143.59375 209.898438 143.84375 209.695312 C 144.09375 209.488281 144.351562 209.296875 144.625 209.117188 C 144.890625 208.933594 145.171875 208.769531 145.457031 208.617188 C 145.742188 208.460938 146.035156 208.324219 146.335938 208.199219 C 146.632812 208.078125 146.9375 207.96875 147.25 207.875 C 147.558594 207.777344 147.875 207.699219 148.191406 207.636719 C 148.507812 207.574219 148.828125 207.527344 149.152344 207.492188 C 149.476562 207.460938 149.796875 207.445312 150.125 207.445312 C 150.445312 207.445312 150.769531 207.460938 151.09375 207.492188 C 151.414062 207.527344 151.734375 207.574219 152.054688 207.636719 C 152.371094 207.699219 152.6875 207.777344 152.996094 207.875 C 153.308594 207.96875 153.613281 208.078125 153.910156 208.199219 C 154.210938 208.324219 154.503906 208.460938 154.789062 208.617188 C 155.074219 208.769531 155.351562 208.933594 155.625 209.117188 C 155.890625 209.296875 156.152344 209.488281 156.402344 209.695312 C 156.65625 209.898438 156.894531 210.117188 157.125 210.347656 C 157.351562 210.574219 157.570312 210.816406 157.777344 211.066406 C 157.980469 211.316406 158.175781 211.578125 158.355469 211.847656 C 158.535156 212.117188 158.703125 212.394531 158.855469 212.679688 C 159.007812 212.964844 159.144531 213.257812 159.269531 213.558594 C 159.394531 213.859375 159.503906 214.164062 159.597656 214.472656 C 159.691406 214.78125 159.769531 215.097656 159.832031 215.414062 C 159.894531 215.734375 159.945312 216.054688 159.976562 216.375 C 160.007812 216.699219 160.023438 217.023438 160.023438 217.347656 Z M 160.023438 217.347656 " fill-opacity="1" fill-rule="nonzero"/></g><g clip-path="url(#f5ae6a16a6)"><g clip-path="url(#0aa38466e9)"><path fill="#ffffff" d="M 159.964844 149.078125 L 183.167969 149.078125 L 183.167969 226.421875 L 159.964844 226.421875 Z M 159.964844 149.078125 " fill-opacity="1" fill-rule="nonzero"/></g></g><g clip-path="url(#92e6cb606c)"><path fill="#ffffff" d="M 195.175781 149.078125 L 207.128906 149.078125 L 207.128906 227.125 L 195.175781 227.125 Z M 195.175781 149.078125 " fill-opacity="1" fill-rule="nonzero"/></g><g clip-path="url(#eb057e68d8)"><g clip-path="url(#3fefe0b68d)"><path fill="#ffffff" d="M 219.367188 149.113281 L 231.601562 149.113281 L 231.601562 173.578125 L 219.367188 173.578125 Z M 219.367188 149.113281 " fill-opacity="1" fill-rule="nonzero"/></g></g><g clip-path="url(#5017695ac3)"><path fill="#ffffff" d="M 219.503906 181.492188 L 229.347656 181.492188 L 229.347656 227.195312 L 219.503906 227.195312 Z M 219.503906 181.492188 " fill-opacity="1" fill-rule="nonzero"/></g></svg>